<mxfile host="app.diagrams.net" agent="Mozilla/5.0 (Macintosh; Intel Mac OS X 10_15_7) AppleWebKit/537.36 (KHTML, like Gecko) Chrome/135.0.0.0 Safari/537.36" version="26.2.14">
  <diagram id="C5RBs43oDa-KdzZeNtuy" name="Page-1">
    <mxGraphModel dx="1234" dy="736" grid="1" gridSize="10" guides="1" tooltips="1" connect="1" arrows="1" fold="1" page="1" pageScale="1" pageWidth="827" pageHeight="1169" math="0" shadow="0">
      <root>
        <mxCell id="WIyWlLk6GJQsqaUBKTNV-0" />
        <mxCell id="WIyWlLk6GJQsqaUBKTNV-1" parent="WIyWlLk6GJQsqaUBKTNV-0" />
        <mxCell id="WIyWlLk6GJQsqaUBKTNV-2" value="" style="rounded=0;html=1;jettySize=auto;orthogonalLoop=1;fontSize=11;endArrow=block;endFill=0;endSize=8;strokeWidth=1;shadow=0;labelBackgroundColor=none;edgeStyle=orthogonalEdgeStyle;" parent="WIyWlLk6GJQsqaUBKTNV-1" target="WIyWlLk6GJQsqaUBKTNV-6" edge="1">
          <mxGeometry relative="1" as="geometry">
            <mxPoint x="220" y="70" as="sourcePoint" />
          </mxGeometry>
        </mxCell>
        <mxCell id="WIyWlLk6GJQsqaUBKTNV-4" value="Yes" style="rounded=0;html=1;jettySize=auto;orthogonalLoop=1;fontSize=11;endArrow=block;endFill=0;endSize=8;strokeWidth=1;shadow=0;labelBackgroundColor=none;edgeStyle=orthogonalEdgeStyle;" parent="WIyWlLk6GJQsqaUBKTNV-1" source="WIyWlLk6GJQsqaUBKTNV-6" target="WIyWlLk6GJQsqaUBKTNV-10" edge="1">
          <mxGeometry y="20" relative="1" as="geometry">
            <mxPoint as="offset" />
          </mxGeometry>
        </mxCell>
        <mxCell id="WIyWlLk6GJQsqaUBKTNV-6" value="KYC&lt;div&gt;&lt;span style=&quot;text-wrap-mode: nowrap;&quot;&gt;(no changes)&lt;/span&gt;&lt;/div&gt;" style="rhombus;whiteSpace=wrap;html=1;shadow=0;fontFamily=Helvetica;fontSize=12;align=center;strokeWidth=1;spacing=6;spacingTop=-4;" parent="WIyWlLk6GJQsqaUBKTNV-1" vertex="1">
          <mxGeometry x="160" y="120" width="120" height="80" as="geometry" />
        </mxCell>
        <mxCell id="WIyWlLk6GJQsqaUBKTNV-9" value="No" style="edgeStyle=orthogonalEdgeStyle;rounded=0;html=1;jettySize=auto;orthogonalLoop=1;fontSize=11;endArrow=block;endFill=0;endSize=8;strokeWidth=1;shadow=0;labelBackgroundColor=none;" parent="WIyWlLk6GJQsqaUBKTNV-1" source="WIyWlLk6GJQsqaUBKTNV-10" target="WIyWlLk6GJQsqaUBKTNV-12" edge="1">
          <mxGeometry y="10" relative="1" as="geometry">
            <mxPoint as="offset" />
          </mxGeometry>
        </mxCell>
        <mxCell id="PJthDoJv0WFITbKWcrjk-26" value="" style="edgeStyle=orthogonalEdgeStyle;rounded=0;orthogonalLoop=1;jettySize=auto;html=1;" edge="1" parent="WIyWlLk6GJQsqaUBKTNV-1" source="WIyWlLk6GJQsqaUBKTNV-10" target="PJthDoJv0WFITbKWcrjk-25">
          <mxGeometry relative="1" as="geometry" />
        </mxCell>
        <mxCell id="PJthDoJv0WFITbKWcrjk-27" value="" style="edgeStyle=orthogonalEdgeStyle;rounded=0;orthogonalLoop=1;jettySize=auto;html=1;" edge="1" parent="WIyWlLk6GJQsqaUBKTNV-1" source="WIyWlLk6GJQsqaUBKTNV-10" target="PJthDoJv0WFITbKWcrjk-6">
          <mxGeometry relative="1" as="geometry" />
        </mxCell>
        <mxCell id="PJthDoJv0WFITbKWcrjk-29" value="Yes" style="edgeLabel;html=1;align=center;verticalAlign=middle;resizable=0;points=[];" vertex="1" connectable="0" parent="PJthDoJv0WFITbKWcrjk-27">
          <mxGeometry x="-0.24" y="-1" relative="1" as="geometry">
            <mxPoint as="offset" />
          </mxGeometry>
        </mxCell>
        <mxCell id="WIyWlLk6GJQsqaUBKTNV-10" value="Routing to EazyPay" style="rhombus;whiteSpace=wrap;html=1;shadow=0;fontFamily=Helvetica;fontSize=12;align=center;strokeWidth=1;spacing=6;spacingTop=-4;" parent="WIyWlLk6GJQsqaUBKTNV-1" vertex="1">
          <mxGeometry x="160" y="240" width="120" height="80" as="geometry" />
        </mxCell>
        <mxCell id="WIyWlLk6GJQsqaUBKTNV-12" value="old flow n&lt;span style=&quot;text-wrap-mode: nowrap;&quot;&gt;o changes&lt;/span&gt;" style="rounded=1;whiteSpace=wrap;html=1;fontSize=12;glass=0;strokeWidth=1;shadow=0;" parent="WIyWlLk6GJQsqaUBKTNV-1" vertex="1">
          <mxGeometry x="340" y="260" width="120" height="40" as="geometry" />
        </mxCell>
        <mxCell id="PJthDoJv0WFITbKWcrjk-21" value="" style="edgeStyle=orthogonalEdgeStyle;rounded=0;orthogonalLoop=1;jettySize=auto;html=1;" edge="1" parent="WIyWlLk6GJQsqaUBKTNV-1" source="PJthDoJv0WFITbKWcrjk-6" target="PJthDoJv0WFITbKWcrjk-20">
          <mxGeometry relative="1" as="geometry" />
        </mxCell>
        <mxCell id="PJthDoJv0WFITbKWcrjk-6" value="Trigger Point (n&lt;span style=&quot;text-wrap-mode: nowrap;&quot;&gt;o changes&lt;/span&gt;)" style="rounded=0;whiteSpace=wrap;html=1;" vertex="1" parent="WIyWlLk6GJQsqaUBKTNV-1">
          <mxGeometry x="160" y="370" width="120" height="60" as="geometry" />
        </mxCell>
        <mxCell id="PJthDoJv0WFITbKWcrjk-44" value="" style="edgeStyle=orthogonalEdgeStyle;rounded=0;orthogonalLoop=1;jettySize=auto;html=1;" edge="1" parent="WIyWlLk6GJQsqaUBKTNV-1" source="PJthDoJv0WFITbKWcrjk-20" target="PJthDoJv0WFITbKWcrjk-43">
          <mxGeometry relative="1" as="geometry" />
        </mxCell>
        <mxCell id="PJthDoJv0WFITbKWcrjk-20" value="Quote (n&lt;span style=&quot;text-wrap-mode: nowrap;&quot;&gt;o changes&lt;/span&gt;)" style="whiteSpace=wrap;html=1;rounded=0;" vertex="1" parent="WIyWlLk6GJQsqaUBKTNV-1">
          <mxGeometry x="160" y="470" width="120" height="60" as="geometry" />
        </mxCell>
        <mxCell id="PJthDoJv0WFITbKWcrjk-25" value="&lt;span style=&quot;text-wrap-mode: nowrap; font-family: Consolas, &amp;quot;Bitstream Vera Sans Mono&amp;quot;, &amp;quot;Courier New&amp;quot;, Courier, monospace; font-size: 14px; text-align: left; background-color: rgb(255, 255, 255);&quot;&gt;AP_EAZYPAY_COM&lt;/span&gt;&lt;div style=&quot;text-wrap-mode: nowrap;&quot;&gt;&lt;span style=&quot;font-family: Consolas, &amp;quot;Bitstream Vera Sans Mono&amp;quot;, &amp;quot;Courier New&amp;quot;, Courier, monospace; font-size: 14px; text-align: left; background-color: rgb(255, 255, 255);&quot;&gt;GP_EAZYPAY_COM&lt;/span&gt;&lt;/div&gt;" style="shape=document;whiteSpace=wrap;html=1;boundedLbl=1;" vertex="1" parent="WIyWlLk6GJQsqaUBKTNV-1">
          <mxGeometry x="10" y="235" width="130" height="90" as="geometry" />
        </mxCell>
        <mxCell id="PJthDoJv0WFITbKWcrjk-35" value="" style="edgeStyle=orthogonalEdgeStyle;rounded=0;orthogonalLoop=1;jettySize=auto;html=1;" edge="1" parent="WIyWlLk6GJQsqaUBKTNV-1" source="PJthDoJv0WFITbKWcrjk-30" target="PJthDoJv0WFITbKWcrjk-34">
          <mxGeometry relative="1" as="geometry" />
        </mxCell>
        <mxCell id="PJthDoJv0WFITbKWcrjk-36" value="Yes" style="edgeLabel;html=1;align=center;verticalAlign=middle;resizable=0;points=[];" vertex="1" connectable="0" parent="PJthDoJv0WFITbKWcrjk-35">
          <mxGeometry x="-0.2" y="1" relative="1" as="geometry">
            <mxPoint as="offset" />
          </mxGeometry>
        </mxCell>
        <mxCell id="PJthDoJv0WFITbKWcrjk-38" value="" style="edgeStyle=orthogonalEdgeStyle;rounded=0;orthogonalLoop=1;jettySize=auto;html=1;" edge="1" parent="WIyWlLk6GJQsqaUBKTNV-1" source="PJthDoJv0WFITbKWcrjk-30" target="PJthDoJv0WFITbKWcrjk-37">
          <mxGeometry relative="1" as="geometry" />
        </mxCell>
        <mxCell id="PJthDoJv0WFITbKWcrjk-30" value="useGateway" style="rhombus;whiteSpace=wrap;html=1;rounded=0;" vertex="1" parent="WIyWlLk6GJQsqaUBKTNV-1">
          <mxGeometry x="160" y="670" width="120" height="80" as="geometry" />
        </mxCell>
        <mxCell id="PJthDoJv0WFITbKWcrjk-34" value="old flow n&lt;span style=&quot;text-wrap-mode: nowrap;&quot;&gt;o changes&lt;/span&gt;" style="rounded=1;whiteSpace=wrap;html=1;fontSize=12;glass=0;strokeWidth=1;shadow=0;" vertex="1" parent="WIyWlLk6GJQsqaUBKTNV-1">
          <mxGeometry x="370" y="685" width="140" height="50" as="geometry" />
        </mxCell>
        <mxCell id="PJthDoJv0WFITbKWcrjk-50" value="" style="edgeStyle=orthogonalEdgeStyle;rounded=0;orthogonalLoop=1;jettySize=auto;html=1;" edge="1" parent="WIyWlLk6GJQsqaUBKTNV-1" source="PJthDoJv0WFITbKWcrjk-37" target="PJthDoJv0WFITbKWcrjk-49">
          <mxGeometry relative="1" as="geometry" />
        </mxCell>
        <mxCell id="PJthDoJv0WFITbKWcrjk-37" value="&lt;div style=&quot;background-color: rgb(255, 255, 255); color: rgb(8, 8, 8);&quot;&gt;&lt;pre style=&quot;line-height: 100%;&quot;&gt;&lt;pre style=&quot;text-align: center;&quot;&gt;&lt;span style=&quot;color: rgb(0, 0, 0); font-family: -apple-system, &amp;quot;system-ui&amp;quot;, &amp;quot;Segoe UI&amp;quot;, Roboto, Oxygen, Ubuntu, &amp;quot;Fira Sans&amp;quot;, &amp;quot;Droid Sans&amp;quot;, &amp;quot;Helvetica Neue&amp;quot;, sans-serif; font-size: 14px; text-align: left; white-space: normal;&quot;&gt;get&amp;nbsp;&lt;/span&gt;&lt;font face=&quot;-apple-system, system-ui, Segoe UI, Roboto, Oxygen, Ubuntu, Fira Sans, Droid Sans, Helvetica Neue, sans-serif&quot;&gt;&lt;span style=&quot;font-size: 14px; white-space: normal;&quot;&gt;encypt token and send BE&amp;nbsp;decrypt (no changes)&lt;/span&gt;&lt;/font&gt;&lt;/pre&gt;&lt;/pre&gt;&lt;/div&gt;" style="html=1;rounded=0;align=center;whiteSpace=wrap;" vertex="1" parent="WIyWlLk6GJQsqaUBKTNV-1">
          <mxGeometry x="120" y="790" width="200" height="60" as="geometry" />
        </mxCell>
        <mxCell id="PJthDoJv0WFITbKWcrjk-45" value="" style="edgeStyle=orthogonalEdgeStyle;rounded=0;orthogonalLoop=1;jettySize=auto;html=1;" edge="1" parent="WIyWlLk6GJQsqaUBKTNV-1" source="PJthDoJv0WFITbKWcrjk-43">
          <mxGeometry relative="1" as="geometry">
            <mxPoint x="360" y="600" as="targetPoint" />
          </mxGeometry>
        </mxCell>
        <mxCell id="PJthDoJv0WFITbKWcrjk-46" value="" style="edgeStyle=orthogonalEdgeStyle;rounded=0;orthogonalLoop=1;jettySize=auto;html=1;" edge="1" parent="WIyWlLk6GJQsqaUBKTNV-1" source="PJthDoJv0WFITbKWcrjk-43" target="PJthDoJv0WFITbKWcrjk-30">
          <mxGeometry relative="1" as="geometry" />
        </mxCell>
        <mxCell id="PJthDoJv0WFITbKWcrjk-43" value="Order Confirm" style="shape=parallelogram;perimeter=parallelogramPerimeter;whiteSpace=wrap;html=1;fixedSize=1;" vertex="1" parent="WIyWlLk6GJQsqaUBKTNV-1">
          <mxGeometry x="160" y="570" width="120" height="60" as="geometry" />
        </mxCell>
        <mxCell id="PJthDoJv0WFITbKWcrjk-47" value="&lt;span style=&quot;color: rgb(23, 43, 77); font-family: -apple-system, &amp;quot;system-ui&amp;quot;, &amp;quot;Segoe UI&amp;quot;, Roboto, Oxygen, Ubuntu, &amp;quot;Fira Sans&amp;quot;, &amp;quot;Droid Sans&amp;quot;, &amp;quot;Helvetica Neue&amp;quot;, sans-serif; font-size: 14px; text-align: left; background-color: rgb(255, 255, 255);&quot;&gt;collectDeviceAuthFingerprint&lt;/span&gt;" style="rounded=1;whiteSpace=wrap;html=1;" vertex="1" parent="WIyWlLk6GJQsqaUBKTNV-1">
          <mxGeometry x="360" y="570" width="210" height="60" as="geometry" />
        </mxCell>
        <mxCell id="PJthDoJv0WFITbKWcrjk-52" value="" style="edgeStyle=orthogonalEdgeStyle;rounded=0;orthogonalLoop=1;jettySize=auto;html=1;" edge="1" parent="WIyWlLk6GJQsqaUBKTNV-1" source="PJthDoJv0WFITbKWcrjk-49" target="PJthDoJv0WFITbKWcrjk-51">
          <mxGeometry relative="1" as="geometry" />
        </mxCell>
        <mxCell id="PJthDoJv0WFITbKWcrjk-49" value="Submit Order&lt;br&gt;(no changes)" style="whiteSpace=wrap;html=1;rounded=0;" vertex="1" parent="WIyWlLk6GJQsqaUBKTNV-1">
          <mxGeometry x="160" y="890" width="120" height="60" as="geometry" />
        </mxCell>
        <mxCell id="PJthDoJv0WFITbKWcrjk-55" value="" style="edgeStyle=orthogonalEdgeStyle;rounded=0;orthogonalLoop=1;jettySize=auto;html=1;" edge="1" parent="WIyWlLk6GJQsqaUBKTNV-1" source="PJthDoJv0WFITbKWcrjk-51" target="PJthDoJv0WFITbKWcrjk-54">
          <mxGeometry relative="1" as="geometry" />
        </mxCell>
        <mxCell id="PJthDoJv0WFITbKWcrjk-51" value="3DSProviderFlow&lt;br&gt;(no changes)" style="whiteSpace=wrap;html=1;rounded=0;" vertex="1" parent="WIyWlLk6GJQsqaUBKTNV-1">
          <mxGeometry x="160" y="990" width="120" height="60" as="geometry" />
        </mxCell>
        <mxCell id="PJthDoJv0WFITbKWcrjk-54" value="Order Result" style="ellipse;whiteSpace=wrap;html=1;rounded=0;" vertex="1" parent="WIyWlLk6GJQsqaUBKTNV-1">
          <mxGeometry x="180" y="1090" width="80" height="50" as="geometry" />
        </mxCell>
        <mxCell id="PJthDoJv0WFITbKWcrjk-61" value="AP/GP EazyPay" style="ellipse;whiteSpace=wrap;html=1;rounded=0;" vertex="1" parent="WIyWlLk6GJQsqaUBKTNV-1">
          <mxGeometry x="180" y="30" width="80" height="50" as="geometry" />
        </mxCell>
      </root>
    </mxGraphModel>
  </diagram>
</mxfile>
